<mxfile host="app.diagrams.net" modified="2023-10-18T04:29:07.922Z" agent="Mozilla/5.0 (Windows NT 10.0; Win64; x64) AppleWebKit/537.36 (KHTML, like Gecko) Chrome/118.0.0.0 Safari/537.36 Edg/118.0.2088.46" etag="tCryhmfP1SnXcHxQX_Yr" version="22.0.4" type="device">
  <diagram name="Page-1" id="2c0d36ab-eaac-3732-788b-9136903baeff">
    <mxGraphModel dx="1649" dy="740" grid="1" gridSize="10" guides="1" tooltips="1" connect="1" arrows="1" fold="1" page="1" pageScale="1.5" pageWidth="1169" pageHeight="827" background="none" math="0" shadow="0">
      <root>
        <mxCell id="0" />
        <mxCell id="1" parent="0" />
        <mxCell id="2" value="Proyecto Version 2.0" style="rounded=1;fillColor=#23445D;gradientColor=none;strokeColor=none;fontColor=#FFFFFF;fontStyle=1;fontFamily=Tahoma;fontSize=14" parent="1" vertex="1">
          <mxGeometry x="757" y="185.5" width="190" height="80" as="geometry" />
        </mxCell>
        <mxCell id="4" value="Cierre" style="rounded=1;fillColor=#23445D;gradientColor=none;strokeColor=none;fontColor=#FFFFFF;fontStyle=1;fontFamily=Tahoma;fontSize=14" parent="1" vertex="1">
          <mxGeometry x="1259.9999999999998" y="330" width="190" height="80" as="geometry" />
        </mxCell>
        <mxCell id="9" value="" style="edgeStyle=elbowEdgeStyle;elbow=vertical;strokeWidth=2;rounded=0;entryX=0.5;entryY=0;entryDx=0;entryDy=0;" parent="1" source="2" target="4" edge="1">
          <mxGeometry x="337" y="215.5" width="100" height="100" as="geometry">
            <mxPoint x="337" y="315.5" as="sourcePoint" />
            <mxPoint x="437" y="215.5" as="targetPoint" />
            <Array as="points">
              <mxPoint x="1410" y="300" />
              <mxPoint x="1380" y="300" />
              <mxPoint x="1390" y="300" />
            </Array>
          </mxGeometry>
        </mxCell>
        <mxCell id="10" value="Ejecucion" style="rounded=1;fillColor=#23445D;gradientColor=none;strokeColor=none;fontColor=#FFFFFF;fontStyle=1;fontFamily=Tahoma;fontSize=14" parent="1" vertex="1">
          <mxGeometry x="757" y="345.5" width="190" height="80" as="geometry" />
        </mxCell>
        <mxCell id="12" value="Planificación" style="rounded=1;fillColor=#23445D;gradientColor=none;strokeColor=none;fontColor=#FFFFFF;fontStyle=1;fontFamily=Tahoma;fontSize=14" parent="1" vertex="1">
          <mxGeometry x="459.9999999999999" y="335.5" width="190" height="80" as="geometry" />
        </mxCell>
        <mxCell id="13" value="Inicio" style="rounded=1;fillColor=#23445D;gradientColor=none;strokeColor=none;fontColor=#FFFFFF;fontStyle=1;fontFamily=Tahoma;fontSize=14" parent="1" vertex="1">
          <mxGeometry x="107" y="335.5" width="190" height="80" as="geometry" />
        </mxCell>
        <mxCell id="17" value="Matriz de&#xa;Interesados" style="rounded=1;fillColor=#23445D;gradientColor=none;strokeColor=none;fontColor=#FFFFFF;fontStyle=1;fontFamily=Tahoma;fontSize=14" parent="1" vertex="1">
          <mxGeometry x="137" y="540" width="130" height="60" as="geometry" />
        </mxCell>
        <mxCell id="33" value="Plan de Integracion" style="rounded=1;fillColor=#23445D;gradientColor=none;strokeColor=none;fontColor=#FFFFFF;fontStyle=1;fontFamily=Tahoma;fontSize=14" parent="1" vertex="1">
          <mxGeometry x="488" y="470" width="140" height="60" as="geometry" />
        </mxCell>
        <mxCell id="34" value="Gestion de &#xa;Stakeholders" style="rounded=1;fillColor=#23445D;gradientColor=none;strokeColor=none;fontColor=#FFFFFF;fontStyle=1;fontFamily=Tahoma;fontSize=14" parent="1" vertex="1">
          <mxGeometry x="490" y="560" width="130" height="60" as="geometry" />
        </mxCell>
        <mxCell id="35" value="Planificación del&#xa;Alcance" style="rounded=1;fillColor=#23445D;gradientColor=none;strokeColor=none;fontColor=#FFFFFF;fontStyle=1;fontFamily=Tahoma;fontSize=14" parent="1" vertex="1">
          <mxGeometry x="490" y="635.5" width="130" height="60" as="geometry" />
        </mxCell>
        <mxCell id="36" value="Planificación de &#xa;Recursos Humanos" style="rounded=1;fillColor=#23445D;gradientColor=none;strokeColor=none;fontColor=#FFFFFF;fontStyle=1;fontFamily=Tahoma;fontSize=14" parent="1" vertex="1">
          <mxGeometry x="488" y="720" width="130" height="60" as="geometry" />
        </mxCell>
        <mxCell id="37" value="Planificación de &#xa;la comunicación" style="rounded=1;fillColor=#23445D;gradientColor=none;strokeColor=none;fontColor=#FFFFFF;fontStyle=1;fontFamily=Tahoma;fontSize=14" parent="1" vertex="1">
          <mxGeometry x="488" y="800" width="130" height="60" as="geometry" />
        </mxCell>
        <mxCell id="38" value="Planificación del&#xa;tiempo y costo" style="rounded=1;fillColor=#23445D;gradientColor=none;strokeColor=none;fontColor=#FFFFFF;fontStyle=1;fontFamily=Tahoma;fontSize=14" parent="1" vertex="1">
          <mxGeometry x="488" y="880" width="130" height="60" as="geometry" />
        </mxCell>
        <mxCell id="39" value="Planificación de &#xa;Costos" style="rounded=1;fillColor=#23445D;gradientColor=none;strokeColor=none;fontColor=#FFFFFF;fontStyle=1;fontFamily=Tahoma;fontSize=14" parent="1" vertex="1">
          <mxGeometry x="488" y="950" width="130" height="60" as="geometry" />
        </mxCell>
        <mxCell id="41" value="Aseguramiento&#xa;de la Calidad" style="rounded=1;fillColor=#23445D;gradientColor=none;strokeColor=none;fontColor=#FFFFFF;fontStyle=1;fontFamily=Tahoma;fontSize=14" parent="1" vertex="1">
          <mxGeometry x="787" y="460" width="130" height="60" as="geometry" />
        </mxCell>
        <mxCell id="42" value="Comunicaciones" style="rounded=1;fillColor=#23445D;gradientColor=none;strokeColor=none;fontColor=#FFFFFF;fontStyle=1;fontFamily=Tahoma;fontSize=14" parent="1" vertex="1">
          <mxGeometry x="793.5" y="542.75" width="130" height="60" as="geometry" />
        </mxCell>
        <mxCell id="43" value="Diseño de Interfaz&#xa;De Usuario" style="rounded=1;fillColor=#23445D;gradientColor=none;strokeColor=none;fontColor=#FFFFFF;fontStyle=1;fontFamily=Tahoma;fontSize=14" parent="1" vertex="1">
          <mxGeometry x="793.5" y="620" width="130" height="60" as="geometry" />
        </mxCell>
        <mxCell id="59" value="" style="edgeStyle=elbowEdgeStyle;elbow=vertical;strokeWidth=2;rounded=0" parent="1" source="2" target="12" edge="1">
          <mxGeometry x="347" y="225.5" width="100" height="100" as="geometry">
            <mxPoint x="861.9999999999999" y="275.5" as="sourcePoint" />
            <mxPoint x="1466.9999999999998" y="345.5" as="targetPoint" />
          </mxGeometry>
        </mxCell>
        <mxCell id="61" value="" style="edgeStyle=elbowEdgeStyle;elbow=vertical;strokeWidth=2;rounded=0" parent="1" source="2" target="13" edge="1">
          <mxGeometry x="-23" y="135.5" width="100" height="100" as="geometry">
            <mxPoint x="-23" y="235.5" as="sourcePoint" />
            <mxPoint x="77" y="135.5" as="targetPoint" />
          </mxGeometry>
        </mxCell>
        <mxCell id="64" value="" style="edgeStyle=elbowEdgeStyle;elbow=horizontal;strokeWidth=2;rounded=0" parent="1" source="13" target="16" edge="1">
          <mxGeometry x="-23" y="135.5" width="100" height="100" as="geometry">
            <mxPoint x="-23" y="235.5" as="sourcePoint" />
            <mxPoint x="77" y="135.5" as="targetPoint" />
            <Array as="points">
              <mxPoint x="202" y="435.5" />
            </Array>
          </mxGeometry>
        </mxCell>
        <mxCell id="65" value="" style="edgeStyle=elbowEdgeStyle;elbow=horizontal;strokeWidth=2;rounded=0;exitX=0;exitY=0.5;exitDx=0;exitDy=0;" parent="1" source="16" target="17" edge="1">
          <mxGeometry x="-23" y="135.5" width="100" height="100" as="geometry">
            <mxPoint x="150" y="530" as="sourcePoint" />
            <mxPoint x="77" y="135.5" as="targetPoint" />
            <Array as="points">
              <mxPoint x="110" y="550" />
            </Array>
          </mxGeometry>
        </mxCell>
        <mxCell id="76" value="" style="edgeStyle=elbowEdgeStyle;elbow=horizontal;strokeWidth=2;rounded=0" parent="1" source="33" target="34" edge="1">
          <mxGeometry x="-23" y="135.5" width="100" height="100" as="geometry">
            <mxPoint x="-302" y="250" as="sourcePoint" />
            <mxPoint x="-202" y="150" as="targetPoint" />
            <Array as="points">
              <mxPoint x="468" y="550" />
            </Array>
          </mxGeometry>
        </mxCell>
        <mxCell id="77" value="" style="edgeStyle=elbowEdgeStyle;elbow=horizontal;strokeWidth=2;rounded=0" parent="1" source="33" target="35" edge="1">
          <mxGeometry x="-23" y="135.5" width="100" height="100" as="geometry">
            <mxPoint x="-302" y="250" as="sourcePoint" />
            <mxPoint x="-202" y="150" as="targetPoint" />
            <Array as="points">
              <mxPoint x="468" y="590" />
            </Array>
          </mxGeometry>
        </mxCell>
        <mxCell id="78" value="" style="edgeStyle=elbowEdgeStyle;elbow=horizontal;strokeWidth=2;rounded=0" parent="1" source="33" target="36" edge="1">
          <mxGeometry x="-23" y="135.5" width="100" height="100" as="geometry">
            <mxPoint x="-302" y="250" as="sourcePoint" />
            <mxPoint x="-202" y="150" as="targetPoint" />
            <Array as="points">
              <mxPoint x="468" y="640" />
            </Array>
          </mxGeometry>
        </mxCell>
        <mxCell id="79" value="" style="edgeStyle=elbowEdgeStyle;elbow=horizontal;strokeWidth=2;rounded=0" parent="1" source="33" target="37" edge="1">
          <mxGeometry x="-23" y="135.5" width="100" height="100" as="geometry">
            <mxPoint x="-302" y="250" as="sourcePoint" />
            <mxPoint x="-202" y="150" as="targetPoint" />
            <Array as="points">
              <mxPoint x="468" y="680" />
            </Array>
          </mxGeometry>
        </mxCell>
        <mxCell id="80" value="" style="edgeStyle=elbowEdgeStyle;elbow=horizontal;strokeWidth=2;rounded=0" parent="1" source="33" target="38" edge="1">
          <mxGeometry x="-23" y="135.5" width="100" height="100" as="geometry">
            <mxPoint x="-302" y="250" as="sourcePoint" />
            <mxPoint x="-202" y="150" as="targetPoint" />
            <Array as="points">
              <mxPoint x="468" y="720" />
            </Array>
          </mxGeometry>
        </mxCell>
        <mxCell id="81" value="" style="edgeStyle=elbowEdgeStyle;elbow=horizontal;strokeWidth=2;rounded=0" parent="1" source="33" target="39" edge="1">
          <mxGeometry x="-23" y="135.5" width="100" height="100" as="geometry">
            <mxPoint x="-302" y="250" as="sourcePoint" />
            <mxPoint x="-202" y="150" as="targetPoint" />
            <Array as="points">
              <mxPoint x="468" y="770" />
            </Array>
          </mxGeometry>
        </mxCell>
        <mxCell id="82" value="" style="edgeStyle=elbowEdgeStyle;elbow=horizontal;strokeWidth=2;rounded=0;entryX=0;entryY=0.5;entryDx=0;entryDy=0;" parent="1" source="41" target="42" edge="1">
          <mxGeometry x="-23" y="135.5" width="100" height="100" as="geometry">
            <mxPoint x="-213" y="245.5" as="sourcePoint" />
            <mxPoint x="-113" y="145.5" as="targetPoint" />
            <Array as="points">
              <mxPoint x="767" y="545.5" />
            </Array>
          </mxGeometry>
        </mxCell>
        <mxCell id="83" value="" style="edgeStyle=elbowEdgeStyle;elbow=horizontal;strokeWidth=2;rounded=0" parent="1" source="41" target="43" edge="1">
          <mxGeometry x="-23" y="135.5" width="100" height="100" as="geometry">
            <mxPoint x="-213" y="245.5" as="sourcePoint" />
            <mxPoint x="-113" y="145.5" as="targetPoint" />
            <Array as="points">
              <mxPoint x="767" y="595.5" />
            </Array>
          </mxGeometry>
        </mxCell>
        <mxCell id="102" value="" style="edgeStyle=elbowEdgeStyle;elbow=vertical;strokeWidth=2;rounded=0" parent="1" source="12" target="33" edge="1">
          <mxGeometry x="-23" y="135.5" width="100" height="100" as="geometry">
            <mxPoint x="-125" y="235.5" as="sourcePoint" />
            <mxPoint x="-25" y="135.5" as="targetPoint" />
            <Array as="points">
              <mxPoint x="553" y="450" />
            </Array>
          </mxGeometry>
        </mxCell>
        <mxCell id="103" value="" style="edgeStyle=elbowEdgeStyle;elbow=vertical;strokeWidth=2;rounded=0" parent="1" source="10" target="41" edge="1">
          <mxGeometry x="-23" y="135.5" width="100" height="100" as="geometry">
            <mxPoint x="-213" y="245.5" as="sourcePoint" />
            <mxPoint x="-113" y="145.5" as="targetPoint" />
          </mxGeometry>
        </mxCell>
        <mxCell id="104" value="" style="edgeStyle=elbowEdgeStyle;elbow=vertical;strokeWidth=2;rounded=0;entryX=0.5;entryY=0;entryDx=0;entryDy=0;" parent="1" source="4" target="eohn5QJ9cMSO0G9lYDoq-159" edge="1">
          <mxGeometry x="-23" y="135.5" width="100" height="100" as="geometry">
            <mxPoint x="-23" y="235.5" as="sourcePoint" />
            <mxPoint x="1355" y="450" as="targetPoint" />
          </mxGeometry>
        </mxCell>
        <mxCell id="eohn5QJ9cMSO0G9lYDoq-123" value="Monitoreo y Control" style="rounded=1;fillColor=#23445D;gradientColor=none;strokeColor=none;fontColor=#FFFFFF;fontStyle=1;fontFamily=Tahoma;fontSize=14" parent="1" vertex="1">
          <mxGeometry x="1020" y="335.5" width="190" height="80" as="geometry" />
        </mxCell>
        <mxCell id="eohn5QJ9cMSO0G9lYDoq-129" value="" style="endArrow=none;html=1;rounded=0;fontSize=12;startSize=8;endSize=8;curved=1;entryX=0.5;entryY=1;entryDx=0;entryDy=0;" parent="1" target="2" edge="1">
          <mxGeometry width="50" height="50" relative="1" as="geometry">
            <mxPoint x="852" y="300" as="sourcePoint" />
            <mxPoint x="890" y="350.5" as="targetPoint" />
          </mxGeometry>
        </mxCell>
        <mxCell id="eohn5QJ9cMSO0G9lYDoq-132" value="" style="edgeStyle=elbowEdgeStyle;elbow=vertical;strokeWidth=2;rounded=0;entryX=0.5;entryY=0;entryDx=0;entryDy=0;exitX=0.5;exitY=1;exitDx=0;exitDy=0;" parent="1" source="2" target="10" edge="1">
          <mxGeometry x="347" y="225.5" width="100" height="100" as="geometry">
            <mxPoint x="1245" y="275.5" as="sourcePoint" />
            <mxPoint x="1050" y="345.5" as="targetPoint" />
          </mxGeometry>
        </mxCell>
        <mxCell id="eohn5QJ9cMSO0G9lYDoq-133" value="" style="edgeStyle=elbowEdgeStyle;elbow=vertical;strokeWidth=2;rounded=0;exitX=0.5;exitY=1;exitDx=0;exitDy=0;entryX=0.5;entryY=0;entryDx=0;entryDy=0;" parent="1" source="2" target="eohn5QJ9cMSO0G9lYDoq-123" edge="1">
          <mxGeometry x="347" y="225.5" width="100" height="100" as="geometry">
            <mxPoint x="1107" y="265.5" as="sourcePoint" />
            <mxPoint x="1433" y="336" as="targetPoint" />
          </mxGeometry>
        </mxCell>
        <mxCell id="eohn5QJ9cMSO0G9lYDoq-134" value="Planificación de &#xa;la calidad" style="rounded=1;fillColor=#23445D;gradientColor=none;strokeColor=none;fontColor=#FFFFFF;fontStyle=1;fontFamily=Tahoma;fontSize=14" parent="1" vertex="1">
          <mxGeometry x="490" y="1030" width="130" height="60" as="geometry" />
        </mxCell>
        <mxCell id="eohn5QJ9cMSO0G9lYDoq-136" value="Planificación de &#xa;Riesgos" style="rounded=1;fillColor=#23445D;gradientColor=none;strokeColor=none;fontColor=#FFFFFF;fontStyle=1;fontFamily=Tahoma;fontSize=14" parent="1" vertex="1">
          <mxGeometry x="488" y="1110" width="130" height="60" as="geometry" />
        </mxCell>
        <mxCell id="eohn5QJ9cMSO0G9lYDoq-139" value="" style="edgeStyle=elbowEdgeStyle;elbow=horizontal;strokeWidth=2;rounded=0;entryX=0;entryY=0.5;entryDx=0;entryDy=0;exitX=0;exitY=0.5;exitDx=0;exitDy=0;" parent="1" source="33" target="eohn5QJ9cMSO0G9lYDoq-134" edge="1">
          <mxGeometry x="-23" y="135.5" width="100" height="100" as="geometry">
            <mxPoint x="488" y="500" as="sourcePoint" />
            <mxPoint x="488" y="980" as="targetPoint" />
            <Array as="points">
              <mxPoint x="468" y="770" />
            </Array>
          </mxGeometry>
        </mxCell>
        <mxCell id="eohn5QJ9cMSO0G9lYDoq-140" value="" style="edgeStyle=elbowEdgeStyle;elbow=horizontal;strokeWidth=2;rounded=0;entryX=0;entryY=0.5;entryDx=0;entryDy=0;" parent="1" target="eohn5QJ9cMSO0G9lYDoq-136" edge="1">
          <mxGeometry x="-23" y="135.5" width="100" height="100" as="geometry">
            <mxPoint x="488" y="500" as="sourcePoint" />
            <mxPoint x="488" y="1065.5" as="targetPoint" />
            <Array as="points">
              <mxPoint x="466" y="775.5" />
            </Array>
          </mxGeometry>
        </mxCell>
        <mxCell id="eohn5QJ9cMSO0G9lYDoq-141" value="Back-end&#xa;del Sitio Web" style="rounded=1;fillColor=#23445D;gradientColor=none;strokeColor=none;fontColor=#FFFFFF;fontStyle=1;fontFamily=Tahoma;fontSize=14" parent="1" vertex="1">
          <mxGeometry x="800" y="800" width="143" height="60" as="geometry" />
        </mxCell>
        <mxCell id="eohn5QJ9cMSO0G9lYDoq-143" value="Configuración de&#xa;la base de datos" style="rounded=1;fillColor=#23445D;gradientColor=none;strokeColor=none;fontColor=#FFFFFF;fontStyle=1;fontFamily=Tahoma;fontSize=14" parent="1" vertex="1">
          <mxGeometry x="800" y="960" width="130" height="60" as="geometry" />
        </mxCell>
        <mxCell id="eohn5QJ9cMSO0G9lYDoq-144" value="Front-end&#xa;del Sitio Web" style="rounded=1;fillColor=#23445D;gradientColor=none;strokeColor=none;fontColor=#FFFFFF;fontStyle=1;fontFamily=Tahoma;fontSize=14" parent="1" vertex="1">
          <mxGeometry x="793.5" y="880" width="143" height="60" as="geometry" />
        </mxCell>
        <mxCell id="eohn5QJ9cMSO0G9lYDoq-145" value="Monitorear y &#xa;Controlar y&#xa;Trabajo en el &#xa;tiempo, costo&#xa;y recursos" style="rounded=1;fillColor=#23445D;gradientColor=none;strokeColor=none;fontColor=#FFFFFF;fontStyle=1;fontFamily=Tahoma;fontSize=14" parent="1" vertex="1">
          <mxGeometry x="1050" y="435.5" width="130" height="84.5" as="geometry" />
        </mxCell>
        <mxCell id="eohn5QJ9cMSO0G9lYDoq-146" value="" style="edgeStyle=elbowEdgeStyle;elbow=vertical;strokeWidth=2;rounded=0;exitX=0.5;exitY=1;exitDx=0;exitDy=0;entryX=0.5;entryY=0;entryDx=0;entryDy=0;" parent="1" source="eohn5QJ9cMSO0G9lYDoq-123" target="eohn5QJ9cMSO0G9lYDoq-145" edge="1">
          <mxGeometry x="-23" y="135.5" width="100" height="100" as="geometry">
            <mxPoint x="782" y="426" as="sourcePoint" />
            <mxPoint x="1120" y="460" as="targetPoint" />
            <Array as="points" />
          </mxGeometry>
        </mxCell>
        <mxCell id="eohn5QJ9cMSO0G9lYDoq-148" value="" style="edgeStyle=elbowEdgeStyle;elbow=horizontal;strokeWidth=2;rounded=0;exitX=0;exitY=0.5;exitDx=0;exitDy=0;entryX=0;entryY=0.5;entryDx=0;entryDy=0;" parent="1" source="41" target="eohn5QJ9cMSO0G9lYDoq-141" edge="1">
          <mxGeometry x="-23" y="135.5" width="100" height="100" as="geometry">
            <mxPoint x="790" y="496" as="sourcePoint" />
            <mxPoint x="787" y="675.5" as="targetPoint" />
            <Array as="points">
              <mxPoint x="767" y="595" />
            </Array>
          </mxGeometry>
        </mxCell>
        <mxCell id="eohn5QJ9cMSO0G9lYDoq-149" value="" style="edgeStyle=elbowEdgeStyle;elbow=horizontal;strokeWidth=2;rounded=0;entryX=0;entryY=0.5;entryDx=0;entryDy=0;exitX=0;exitY=0.5;exitDx=0;exitDy=0;" parent="1" source="41" target="eohn5QJ9cMSO0G9lYDoq-144" edge="1">
          <mxGeometry x="-23" y="135.5" width="100" height="100" as="geometry">
            <mxPoint x="860" y="500" as="sourcePoint" />
            <mxPoint x="787" y="750" as="targetPoint" />
            <Array as="points">
              <mxPoint x="767" y="595" />
            </Array>
          </mxGeometry>
        </mxCell>
        <mxCell id="eohn5QJ9cMSO0G9lYDoq-150" value="" style="edgeStyle=elbowEdgeStyle;elbow=horizontal;strokeWidth=2;rounded=0;entryX=0;entryY=0.5;entryDx=0;entryDy=0;exitX=0;exitY=0.5;exitDx=0;exitDy=0;" parent="1" target="eohn5QJ9cMSO0G9lYDoq-143" edge="1">
          <mxGeometry x="-23" y="135.5" width="100" height="100" as="geometry">
            <mxPoint x="787" y="490" as="sourcePoint" />
            <mxPoint x="787" y="830" as="targetPoint" />
            <Array as="points">
              <mxPoint x="767" y="595" />
            </Array>
          </mxGeometry>
        </mxCell>
        <mxCell id="eohn5QJ9cMSO0G9lYDoq-151" value="Controlar &#xa;Cronograma" style="rounded=1;fillColor=#23445D;gradientColor=none;strokeColor=none;fontColor=#FFFFFF;fontStyle=1;fontFamily=Tahoma;fontSize=14" parent="1" vertex="1">
          <mxGeometry x="1050" y="540" width="130" height="60" as="geometry" />
        </mxCell>
        <mxCell id="eohn5QJ9cMSO0G9lYDoq-152" value="Validar y Control&#xa;el alcance" style="rounded=1;fillColor=#23445D;gradientColor=none;strokeColor=none;fontColor=#FFFFFF;fontStyle=1;fontFamily=Tahoma;fontSize=14" parent="1" vertex="1">
          <mxGeometry x="1050" y="620" width="130" height="60" as="geometry" />
        </mxCell>
        <mxCell id="eohn5QJ9cMSO0G9lYDoq-153" value="Realizar Control&#xa;Integrado de &#xa;Cambios" style="rounded=1;fillColor=#23445D;gradientColor=none;strokeColor=none;fontColor=#FFFFFF;fontStyle=1;fontFamily=Tahoma;fontSize=14" parent="1" vertex="1">
          <mxGeometry x="1050" y="695.5" width="130" height="60" as="geometry" />
        </mxCell>
        <mxCell id="eohn5QJ9cMSO0G9lYDoq-155" value="" style="edgeStyle=elbowEdgeStyle;elbow=horizontal;strokeWidth=2;rounded=0;entryX=0;entryY=0.5;entryDx=0;entryDy=0;exitX=0;exitY=0.5;exitDx=0;exitDy=0;" parent="1" source="eohn5QJ9cMSO0G9lYDoq-145" target="eohn5QJ9cMSO0G9lYDoq-152" edge="1">
          <mxGeometry x="-23" y="135.5" width="100" height="100" as="geometry">
            <mxPoint x="990" y="480" as="sourcePoint" />
            <mxPoint x="1060" y="580" as="targetPoint" />
            <Array as="points">
              <mxPoint x="1010" y="540" />
            </Array>
          </mxGeometry>
        </mxCell>
        <mxCell id="eohn5QJ9cMSO0G9lYDoq-156" value="" style="edgeStyle=elbowEdgeStyle;elbow=horizontal;strokeWidth=2;rounded=0;entryX=0;entryY=0.5;entryDx=0;entryDy=0;exitX=0;exitY=0.5;exitDx=0;exitDy=0;" parent="1" target="eohn5QJ9cMSO0G9lYDoq-151" edge="1" source="eohn5QJ9cMSO0G9lYDoq-145">
          <mxGeometry x="-23" y="135.5" width="100" height="100" as="geometry">
            <mxPoint x="1050" y="490" as="sourcePoint" />
            <mxPoint x="1050" y="667" as="targetPoint" />
            <Array as="points">
              <mxPoint x="1010" y="541" />
            </Array>
          </mxGeometry>
        </mxCell>
        <mxCell id="eohn5QJ9cMSO0G9lYDoq-157" value="" style="edgeStyle=elbowEdgeStyle;elbow=horizontal;strokeWidth=2;rounded=0;exitX=0;exitY=0.5;exitDx=0;exitDy=0;entryX=0;entryY=0.5;entryDx=0;entryDy=0;" parent="1" source="eohn5QJ9cMSO0G9lYDoq-145" target="eohn5QJ9cMSO0G9lYDoq-153" edge="1">
          <mxGeometry x="-23" y="135.5" width="100" height="100" as="geometry">
            <mxPoint x="980" y="607" as="sourcePoint" />
            <mxPoint x="1050" y="750" as="targetPoint" />
            <Array as="points">
              <mxPoint x="1010" y="630" />
            </Array>
          </mxGeometry>
        </mxCell>
        <mxCell id="eohn5QJ9cMSO0G9lYDoq-159" value="Cierre &#xa;Administrativo" style="rounded=1;fillColor=#23445D;gradientColor=none;strokeColor=none;fontColor=#FFFFFF;fontStyle=1;fontFamily=Tahoma;fontSize=14" parent="1" vertex="1">
          <mxGeometry x="1290" y="450" width="130" height="65.5" as="geometry" />
        </mxCell>
        <mxCell id="eohn5QJ9cMSO0G9lYDoq-163" value="Hand Over" style="rounded=1;fillColor=#23445D;gradientColor=none;strokeColor=none;fontColor=#FFFFFF;fontStyle=1;fontFamily=Tahoma;fontSize=14" parent="1" vertex="1">
          <mxGeometry x="1290" y="537.25" width="130" height="65.5" as="geometry" />
        </mxCell>
        <mxCell id="eohn5QJ9cMSO0G9lYDoq-165" value="Manual Técnico &#xa;de Usuario" style="rounded=1;fillColor=#23445D;gradientColor=none;strokeColor=none;fontColor=#FFFFFF;fontStyle=1;fontFamily=Tahoma;fontSize=14" parent="1" vertex="1">
          <mxGeometry x="1290" y="630" width="130" height="65.5" as="geometry" />
        </mxCell>
        <mxCell id="eohn5QJ9cMSO0G9lYDoq-166" value="Libro del &#xa;Proyecto" style="rounded=1;fillColor=#23445D;gradientColor=none;strokeColor=none;fontColor=#FFFFFF;fontStyle=1;fontFamily=Tahoma;fontSize=14" parent="1" vertex="1">
          <mxGeometry x="1290" y="714.5" width="130" height="65.5" as="geometry" />
        </mxCell>
        <mxCell id="eohn5QJ9cMSO0G9lYDoq-169" value="" style="edgeStyle=elbowEdgeStyle;elbow=horizontal;strokeWidth=2;rounded=0;entryX=0;entryY=0.5;entryDx=0;entryDy=0;exitX=0;exitY=0.5;exitDx=0;exitDy=0;" parent="1" source="eohn5QJ9cMSO0G9lYDoq-159" target="eohn5QJ9cMSO0G9lYDoq-163" edge="1">
          <mxGeometry x="-23" y="135.5" width="100" height="100" as="geometry">
            <mxPoint x="1250" y="520" as="sourcePoint" />
            <mxPoint x="1250" y="787" as="targetPoint" />
            <Array as="points">
              <mxPoint x="1260" y="530" />
            </Array>
          </mxGeometry>
        </mxCell>
        <mxCell id="eohn5QJ9cMSO0G9lYDoq-172" value="" style="edgeStyle=elbowEdgeStyle;elbow=horizontal;strokeWidth=2;rounded=0;entryX=0;entryY=0.5;entryDx=0;entryDy=0;exitX=0;exitY=0.5;exitDx=0;exitDy=0;" parent="1" source="eohn5QJ9cMSO0G9lYDoq-159" target="eohn5QJ9cMSO0G9lYDoq-165" edge="1">
          <mxGeometry x="-23" y="135.5" width="100" height="100" as="geometry">
            <mxPoint x="1290" y="515.5" as="sourcePoint" />
            <mxPoint x="1290" y="685.5" as="targetPoint" />
            <Array as="points">
              <mxPoint x="1260" y="669.5" />
            </Array>
          </mxGeometry>
        </mxCell>
        <mxCell id="eohn5QJ9cMSO0G9lYDoq-173" value="" style="edgeStyle=elbowEdgeStyle;elbow=horizontal;strokeWidth=2;rounded=0;entryX=0;entryY=0.5;entryDx=0;entryDy=0;exitX=0;exitY=0.5;exitDx=0;exitDy=0;" parent="1" source="eohn5QJ9cMSO0G9lYDoq-159" target="eohn5QJ9cMSO0G9lYDoq-166" edge="1">
          <mxGeometry x="-23" y="135.5" width="100" height="100" as="geometry">
            <mxPoint x="1290" y="493" as="sourcePoint" />
            <mxPoint x="1290" y="738" as="targetPoint" />
            <Array as="points">
              <mxPoint x="1260" y="679.5" />
            </Array>
          </mxGeometry>
        </mxCell>
        <mxCell id="eohn5QJ9cMSO0G9lYDoq-174" value="" style="edgeStyle=elbowEdgeStyle;elbow=horizontal;strokeWidth=2;rounded=0" parent="1" source="13" target="16" edge="1">
          <mxGeometry x="-23" y="135.5" width="100" height="100" as="geometry">
            <mxPoint x="202" y="416" as="sourcePoint" />
            <mxPoint x="237" y="576" as="targetPoint" />
            <Array as="points" />
          </mxGeometry>
        </mxCell>
        <mxCell id="16" value="Project Charter" style="rounded=1;fillColor=#23445D;gradientColor=none;strokeColor=none;fontColor=#FFFFFF;fontStyle=1;fontFamily=Tahoma;fontSize=14" parent="1" vertex="1">
          <mxGeometry x="137" y="455.5" width="130" height="60" as="geometry" />
        </mxCell>
        <mxCell id="RWcT3fOL1zGs4cWSWVs6-104" value="Controlar &#xa;Comunicaciones" style="rounded=1;fillColor=#23445D;gradientColor=none;strokeColor=none;fontColor=#FFFFFF;fontStyle=1;fontFamily=Tahoma;fontSize=14" vertex="1" parent="1">
          <mxGeometry x="1050" y="780" width="130" height="60" as="geometry" />
        </mxCell>
        <mxCell id="RWcT3fOL1zGs4cWSWVs6-105" value="Controlar Riesgos" style="rounded=1;fillColor=#23445D;gradientColor=none;strokeColor=none;fontColor=#FFFFFF;fontStyle=1;fontFamily=Tahoma;fontSize=14" vertex="1" parent="1">
          <mxGeometry x="1050" y="860" width="130" height="60" as="geometry" />
        </mxCell>
        <mxCell id="RWcT3fOL1zGs4cWSWVs6-106" value="Controlar&#xa;Participacion&#xa;de los interesados" style="rounded=1;fillColor=#23445D;gradientColor=none;strokeColor=none;fontColor=#FFFFFF;fontStyle=1;fontFamily=Tahoma;fontSize=14" vertex="1" parent="1">
          <mxGeometry x="1050" y="930" width="130" height="60" as="geometry" />
        </mxCell>
        <mxCell id="RWcT3fOL1zGs4cWSWVs6-107" value="" style="edgeStyle=elbowEdgeStyle;elbow=horizontal;strokeWidth=2;rounded=0;exitX=0;exitY=0.5;exitDx=0;exitDy=0;entryX=0;entryY=0.5;entryDx=0;entryDy=0;" edge="1" parent="1" source="eohn5QJ9cMSO0G9lYDoq-145" target="RWcT3fOL1zGs4cWSWVs6-104">
          <mxGeometry x="-23" y="135.5" width="100" height="100" as="geometry">
            <mxPoint x="1050" y="487" as="sourcePoint" />
            <mxPoint x="1050" y="754" as="targetPoint" />
            <Array as="points">
              <mxPoint x="1010" y="634" />
            </Array>
          </mxGeometry>
        </mxCell>
        <mxCell id="RWcT3fOL1zGs4cWSWVs6-109" value="" style="edgeStyle=elbowEdgeStyle;elbow=horizontal;strokeWidth=2;rounded=0;exitX=0;exitY=0.5;exitDx=0;exitDy=0;entryX=0;entryY=0.5;entryDx=0;entryDy=0;" edge="1" parent="1" source="eohn5QJ9cMSO0G9lYDoq-145" target="RWcT3fOL1zGs4cWSWVs6-105">
          <mxGeometry x="-23" y="135.5" width="100" height="100" as="geometry">
            <mxPoint x="1050" y="470" as="sourcePoint" />
            <mxPoint x="1060" y="827" as="targetPoint" />
            <Array as="points">
              <mxPoint x="1010" y="621" />
            </Array>
          </mxGeometry>
        </mxCell>
        <mxCell id="RWcT3fOL1zGs4cWSWVs6-110" value="" style="edgeStyle=elbowEdgeStyle;elbow=horizontal;strokeWidth=2;rounded=0;entryX=0;entryY=0.5;entryDx=0;entryDy=0;exitX=0;exitY=0.5;exitDx=0;exitDy=0;" edge="1" parent="1" source="eohn5QJ9cMSO0G9lYDoq-145" target="RWcT3fOL1zGs4cWSWVs6-106">
          <mxGeometry x="-23" y="135.5" width="100" height="100" as="geometry">
            <mxPoint x="990" y="480" as="sourcePoint" />
            <mxPoint x="1060" y="917" as="targetPoint" />
            <Array as="points">
              <mxPoint x="1010" y="618" />
            </Array>
          </mxGeometry>
        </mxCell>
        <mxCell id="RWcT3fOL1zGs4cWSWVs6-111" value="Diseño de Modelo&#xa;de Clases" style="rounded=1;fillColor=#23445D;gradientColor=none;strokeColor=none;fontColor=#FFFFFF;fontStyle=1;fontFamily=Tahoma;fontSize=14" vertex="1" parent="1">
          <mxGeometry x="800" y="717.25" width="130" height="60" as="geometry" />
        </mxCell>
        <mxCell id="RWcT3fOL1zGs4cWSWVs6-112" value="" style="edgeStyle=elbowEdgeStyle;elbow=horizontal;strokeWidth=2;rounded=0;exitX=0;exitY=0.5;exitDx=0;exitDy=0;entryX=0;entryY=0.5;entryDx=0;entryDy=0;" edge="1" parent="1" source="41" target="RWcT3fOL1zGs4cWSWVs6-111">
          <mxGeometry x="-23" y="135.5" width="100" height="100" as="geometry">
            <mxPoint x="786.5" y="504" as="sourcePoint" />
            <mxPoint x="793.5" y="680" as="targetPoint" />
            <Array as="points">
              <mxPoint x="766.5" y="609.5" />
            </Array>
          </mxGeometry>
        </mxCell>
      </root>
    </mxGraphModel>
  </diagram>
</mxfile>
